<svg width="46" height="46" viewBox="0 0 46 46" fill="none" xmlns="http://www.w3.org/2000/svg">
<path d="M23.9523 16.3696L25.839 13.8935C25.839 13.8935 26.2163 13.3113 26.5721 13.3508C26.9243 13.3903 27.4993 14.5116 28.9153 14.4002C30.4102 14.2816 31.819 13.8935 31.819 13.8935L32.9977 15.5466L32.7965 16.6319C32.7965 16.6319 32.3509 17.9688 32.6024 18.8564C32.8217 19.6363 33.5871 20.125 33.5979 20.4808C33.6159 20.9516 10.9393 43.3442 10.7021 43.5024C10.4649 43.6605 8.10744 43.3442 7.87025 43.2256C7.63306 43.107 3.78056 38.7047 3.78056 38.7047C3.78056 38.7047 3.61885 36.7641 3.8165 36.4119C3.84166 36.3688 3.98541 36.225 4.10041 36.1352C5.73916 34.8594 11.9276 32.3797 16.6785 27.6971C18.7234 25.6774 23.9523 16.3696 23.9523 16.3696Z" fill="#D06F1D"/>
<path d="M40.1638 5.94411V4.26942C40.1638 4.26942 40.9077 2.70973 41.0874 2.47973C41.2671 2.24973 42.7298 1.96583 43.7576 3.06911C44.7854 4.17239 44.5985 5.24692 44.5015 5.40504C44.3901 5.58473 42.5357 6.72395 42.5357 6.72395L40.1638 5.94411Z" fill="#AF570C"/>
<path d="M25.8426 13.89C25.9899 13.8181 26.8812 15.1765 27.9557 15.2304C29.0302 15.2843 30.8235 15.1765 30.8235 15.1765L31.7327 16.5817L31.6788 17.5448C31.6788 17.5448 31.4596 18.5906 31.6788 19.2518C31.898 19.9131 32.2862 20.2437 32.3401 20.4917C32.394 20.7396 10.9249 42.3704 10.7344 42.4279C10.5404 42.4818 8.2835 42.4567 8.11819 42.3201C7.95288 42.1836 4.82272 38.6653 4.68616 38.4173C4.5496 38.1693 4.03928 36.4515 4.09678 36.1461C4.1435 35.8478 25.6557 13.9834 25.8426 13.89Z" fill="#EB8B34"/>
<path d="M30.2486 14.181C30.2486 14.0983 39.9985 4.4563 39.9985 4.4563L42.3704 6.93599L32.6816 16.8008C32.6816 16.8008 29.6629 17.3004 29.6916 17.1638C29.7204 17.0236 30.2486 14.181 30.2486 14.181Z" fill="#474C4F"/>
<path d="M35.5422 8.87302L36.6671 7.75177L39.1468 10.2207L37.9932 11.3958L35.5422 8.87302ZM37.7236 6.70959L40.171 9.1713L42.6794 6.6449C42.6794 6.6449 40.2644 4.12568 40.1961 4.19755C40.1386 4.25505 37.7236 6.70959 37.7236 6.70959Z" fill="#E0E0E0"/>
<path d="M20.265 26.4824C20.4771 26.7124 21.0844 26.2057 21.5085 25.875C21.6846 25.7385 24.7321 23.3091 27.4777 20.9839C30.2233 18.6588 32.7677 16.8763 32.7857 16.6643C32.8036 16.4522 30.4821 14.1954 30.2485 14.181C30.0113 14.1666 27.9916 16.4594 25.8497 19.0757C23.4671 21.9866 21.0018 25.0305 20.9191 25.1347C20.495 25.6954 20.0997 26.3027 20.265 26.4824Z" fill="#AF570C"/>
<path d="M3.15169 11.5504C1.08888 13.3868 0.564194 17.0165 2.93607 19.4494C4.94498 21.5122 8.22966 21.7566 10.6195 19.4782C12.8009 17.3938 12.2475 13.6707 10.9465 12.1505C9.03826 9.92239 5.37623 9.56661 3.15169 11.5504Z" fill="#A52415"/>
<path d="M6.01223 11.0256C5.37614 10.9502 3.65473 11.3347 2.86051 13.225C2.13817 14.9464 2.60535 16.197 2.95754 16.2941C3.53614 16.4558 3.99973 14.1091 5.2791 13.2645C6.55848 12.42 7.34551 12.9698 7.5216 12.4955C7.64739 12.1648 7.33114 11.1837 6.01223 11.0256Z" fill="#D26051"/>
<path d="M2.32153 18.6984C2.4581 18.6517 5.52356 17.3507 7.23778 16.0318C9.84685 14.0229 10.6303 11.8271 10.6303 11.8271C10.6303 11.8271 11.119 12.2081 11.4748 12.9232C11.73 13.4407 11.9456 14.2637 11.9312 14.35C11.9025 14.5332 10.0373 16.5565 8.1506 18.012C6.26388 19.4675 3.96747 20.3048 3.96747 20.3048C3.96747 20.3048 3.2631 19.7909 2.92888 19.4495C2.5731 19.0793 2.32153 18.6984 2.32153 18.6984Z" fill="#8B200B"/>
<path d="M1.9585 18.1017C1.9585 18.1017 4.55678 17.5015 6.93943 15.5681C9.2574 13.6849 10.3499 11.561 10.3499 11.561C10.3499 11.561 10.6051 11.7479 10.7847 11.9276C10.9644 12.1073 11.0938 12.3121 11.0938 12.3121C11.0938 12.3121 10.4721 14.2779 7.43178 16.6174C4.74725 18.6874 2.49396 18.9534 2.49396 18.9534C2.49396 18.9534 2.3035 18.7449 2.15975 18.4898C2.05912 18.2993 1.9585 18.1017 1.9585 18.1017ZM3.35287 19.8374C3.35287 19.8374 5.80022 19.284 8.15412 17.347C11.1082 14.9176 11.7047 13.4621 11.7047 13.4621C11.7047 13.4621 11.8521 13.8574 11.906 14.0946C11.9743 14.3893 12.0174 14.7415 12.0174 14.7415C12.0174 14.7415 11.1837 16.4485 8.84412 18.2454C6.52256 20.0315 4.57475 20.6101 4.57475 20.6101C4.57475 20.6101 4.17584 20.4304 3.9099 20.2687C3.69068 20.1393 3.35287 19.8374 3.35287 19.8374Z" fill="#FDE7C4"/>
</svg>
